<svg width="40px" height="40px" viewBox="0 0 40 40">
        <g transform="translate(-1072.000000, -102.000000)">
            <path d="M1100,123 L1091,131 L1091,123 L1084,123 L1084,107 L1100,107 L1100,123 Z M1096.99735,123 L1092.99536,123 L1092.99536,126.552036 L1096.99735,123 Z M1108.98628,135 L1109,135 L1109,137 L1075,137 L1075,135 L1075.01163,135 L1074.9977,134.990689 L1081,126.013058 L1081,126 L1089,126 L1089,128 L1082.07739,128 L1077.39731,135 L1106.58615,135 L1101.91388,128 L1098,128 L1098,126 L1103,126 L1103,126.024673 L1108.98937,134.997937 L1108.98628,135 Z M1086,109 L1086,121 L1098,121 L1098,109 L1086,109 Z"></path>
        </g>
</svg>