<svg xmlns="http://www.w3.org/2000/svg" width="40" height="40"><path d="M20 0c11.046 0 20 8.954 20 20s-8.954 20-20 20S0 31.046 0 20 8.954 0 20 0zm14.112 17.201c.133-.289.322-.5.566-.633.222-.055.333-.427.333-1.116 0-.677-.106-1.015-.316-1.015-1.91-.322-4.042-.461-6.395-.417-2.831.056-5.274.383-7.328.983h-1.915c-2.054-.6-4.49-.927-7.31-.983-2.365-.044-4.497.095-6.395.417-.19.066-.295.421-.317 1.065-.011.644.061.994.217 1.05.4.21.632.543.7.999l.166.632c.155.633.338 1.46.55 2.482.21 1.021.576 1.81 1.098 2.365.267.277.505.455.716.532l1.05.217a13.34 13.34 0 0 0 2.414.233c.988 0 1.76-.05 2.315-.15a5.602 5.602 0 0 0 1.832-.633c.522-.288.966-.782 1.332-1.482.189-.355.328-.682.416-.982.1-.245.217-.56.35-.95.267-.754.489-1.432.666-2.031.023-.111.145-.194.367-.25a2.91 2.91 0 0 1 .732-.083c.3 0 .55.028.75.083.222.056.344.139.366.25.178.6.4 1.282.666 2.048.134.378.25.688.35.933l.1.283c.089.244.194.477.316.7.378.699.822 1.193 1.333 1.481a5.78 5.78 0 0 0 1.848.633c.544.1 1.31.15 2.298.15.766 0 1.571-.078 2.415-.233.422-.078.772-.15 1.05-.217l.216-.083c.166-.1.333-.233.5-.4.532-.543.898-1.343 1.098-2.398.211-1.065.4-1.91.567-2.53l.283-.95z"/></svg>