<svg width="40px" height="40px" viewBox="0 0 40 40">
        <g transform="translate(-1002.000000, -102.000000)">
            <path d="M1035.34619,107.113961 L1036.76041,108.528175 L1008.65381,136.634776 L1007.23959,135.220563 L1035.34619,107.113961 Z M1013.5,120 C1009.91015,120 1007,117.089851 1007,113.5 C1007,109.910149 1009.91015,107 1013.5,107 C1017.08985,107 1020,109.910149 1020,113.5 C1020,117.089851 1017.08985,120 1013.5,120 Z M1013.5,118 C1015.98528,118 1018,115.985281 1018,113.5 C1018,111.014719 1015.98528,109 1013.5,109 C1011.01472,109 1009,111.014719 1009,113.5 C1009,115.985281 1011.01472,118 1013.5,118 Z M1030.5,137 C1026.91015,137 1024,134.089851 1024,130.5 C1024,126.910149 1026.91015,124 1030.5,124 C1034.08985,124 1037,126.910149 1037,130.5 C1037,134.089851 1034.08985,137 1030.5,137 Z M1030.5,135 C1032.98528,135 1035,132.985281 1035,130.5 C1035,128.014719 1032.98528,126 1030.5,126 C1028.01472,126 1026,128.014719 1026,130.5 C1026,132.985281 1028.01472,135 1030.5,135 Z"></path>
        </g>
</svg>