<svg width="16" height="16" viewBox="0 0 16 16" xmlns="http://www.w3.org/2000/svg">
<path clip-rule="evenodd" d="M8 16C3.58172 16 0 12.4183 0 8C0 3.58172 3.58172 0 8 0C12.4183 0 16 3.58172 16 8C16 12.4183 12.4183 16 8 16ZM8 14C11.3137 14 14 11.3137 14 8C14 6.70418 13.5892 5.5043 12.8908 4.52348L12.9497 4.46451L12.2575 3.77227C12.2476 3.76231 12.2377 3.75239 12.2277 3.7425L11.5355 3.05029L11.4766 3.10926C10.4957 2.4108 9.29584 2 8 2C4.68629 2 2 4.68629 2 8C2 9.29584 2.4108 10.4957 3.10926 11.4766L3.05024 11.5356L4.46445 12.9498L4.52348 12.8908C5.5043 13.5892 6.70418 14 8 14ZM4.52348 12.8908L12.8908 4.52348C12.7002 4.25595 12.4883 4.00471 12.2575 3.77227L12.2277 3.7425C11.9953 3.51169 11.7441 3.29977 11.4766 3.10926L3.10926 11.4766C3.49845 12.0231 3.97696 12.5016 4.52348 12.8908Z" />
</svg>
