<svg xmlns="http://www.w3.org/2000/svg" xmlns:xlink="http://www.w3.org/1999/xlink" width="16" height="16"><defs><path id="a" d="M14.047 1.296h-1.576V.748c0-.413-.316-.748-.706-.748-.39 0-.706.335-.706.748v.548H4.94V.748C4.941.335 4.625 0 4.235 0c-.39 0-.706.335-.706.748v.548H1.953C.885 1.322.025 2.233 0 3.364v10.692C0 15.153.918 16 1.953 16h12.094C15.082 16 16 15.153 16 14.056V3.364c-.025-1.13-.885-2.042-1.953-2.068zm.541 3.738H1.412v-1.67a.63.63 0 0 1 .54-.573H3.53v.474c0 .413.316.747.706.747.39 0 .706-.334.706-.747V2.79h6.118v.474c0 .413.316.747.706.747.39 0 .706-.334.706-.747V2.79h1.576a.63.63 0 0 1 .541.573v1.67zM3.933 10.393l.491-1.16L6.68 11.02l4.88-4.501.507 1.289-5.423 6.032-2.711-3.447z"/></defs><g fill="none" fill-rule="evenodd"><mask id="b" fill="#fff"><use xlink:href="#a"/></mask><use fill="#000" fill-rule="nonzero" xlink:href="#a"/><g fill="#B3B3B3" mask="url(#b)"><path d="M-11-14h38v42h-38z"/></g></g></svg>