<svg xmlns="http://www.w3.org/2000/svg" width="16" height="16"><path d="M3 3.723v5.373c.542-.698 1.25-1.262 2-1.737V3.723A1.994 1.994 0 0 0 4 0a1.994 1.994 0 1 0-1 3.723zM4 1c.551 0 1 .449 1 1 0 .551-.449 1-1 1-.551 0-1-.449-1-1 0-.551.449-1 1-1zm8-1a2 2 0 0 1 2 2c0 .738-.404 1.376-1 1.723V4c0 2.618-2.419 3.828-4.553 4.895C6.302 9.967 5 10.711 5 12v.277A1.994 1.994 0 0 1 4 16a1.994 1.994 0 1 1-1-3.723V12c0-2.618 2.419-3.828 4.553-4.895C9.697 6.033 11 5.289 11 4v-.277c-.596-.347-1-.985-1-1.723a2 2 0 0 1 2-2zM4 15c.551 0 1-.449 1-1 0-.551-.449-1-1-1-.551 0-1 .449-1 1 0 .551.449 1 1 1zm8-12c.551 0 1-.449 1-1 0-.551-.449-1-1-1-.551 0-1 .449-1 1 0 .551.449 1 1 1z"/></svg>