<svg width="40px" height="40px" viewBox="0 0 40 40">
        <g transform="translate(-51.000000, -102.000000)">
            <path d="M56,135 L56,109 L56,107 L76,107 L76,109 L76,114 L86,114 L86,116 L86,135 L86,137 L56,137 L56,135 Z M58,135 L74,135 L74,109 L58,109 L58,135 Z M84,135 L84,116 L76,116 L76,135 L84,135 Z M61,113 L63,113 L63,117 L61,117 L61,113 Z M65,113 L67,113 L67,117 L65,117 L65,113 Z M69,113 L71,113 L71,117 L69,117 L69,113 Z M61,120 L63,120 L63,124 L61,124 L61,120 Z M65,120 L67,120 L67,124 L65,124 L65,120 Z M69,120 L71,120 L71,124 L69,124 L69,120 Z M61,127 L63,127 L63,131 L61,131 L61,127 Z M65,127 L67,127 L67,131 L65,131 L65,127 Z M69,127 L71,127 L71,131 L69,131 L69,127 Z M79,120 L81,120 L81,124 L79,124 L79,120 Z M79,127 L81,127 L81,131 L79,131 L79,127 Z"></path>
        </g>
</svg>