<svg width="40px" height="40px" viewBox="0 0 40 40">
        <g transform="translate(-835.000000, -102.000000)">
            <path d="M840,130 L840,114 L848,114 L848,107 L850,107 L868,107 L870,107 L870,130 L868,130 L868,123 L862,123 L862,130 L842,130 L842,137 L840,137 L840,130 Z M842,128 L860,128 L860,116 L842,116 L842,127 L842,128 Z M868,109 L850,109 L850,114 L862,114 L862,121 L868,121 L868,109 Z M845,119 L857,119 L857,121 L845,121 L845,119 Z M845,123 L853,123 L853,125 L845,125 L845,123 Z"></path>
        </g>
</svg>