<svg width="40px" height="40px" viewBox="0 0 40 40">
        <g transform="translate(-487.000000, -102.000000)">
            <path d="M502,111 L512,111 L512,107 L514,107 L514,111 L516,111 L516,107 L518,107 L518,111 L522,111 L522,137 L492,137 L492,111 L496,111 L496,107 L498,107 L498,111 L500,111 L500,107 L502,107 L502,111 Z M518,113 L516,113 L498,113 L496,113 L494,113 L494,135 L520,135 L520,113 L518,113 Z M508,120 L512,120 L512,122 L508,122 L508,120 Z M514,120 L518,120 L518,122 L514,122 L514,120 Z M508,125 L512,125 L512,127 L508,127 L508,125 Z M502,125 L506,125 L506,127 L502,127 L502,125 Z M496,125 L500,125 L500,127 L496,127 L496,125 Z M514,125 L518,125 L518,127 L514,127 L514,125 Z M502,130 L506,130 L506,132 L502,132 L502,130 Z M496,130 L500,130 L500,132 L496,132 L496,130 Z M496,115 L518,115 L518,117 L496,117 L496,115 Z"></path>
        </g>
</svg>