<svg width="40px" height="40px" viewBox="0 0 40 40">
        <g transform="translate(-226.000000, -102.000000)">
            <path d="M238.845299,117 L253.154701,117 L248.133975,108.303848 L249.866025,107.303848 L255.464102,117 L261,117 L257,137 L235,137 L231,117 L236.535898,117 L242.133975,107.303848 L243.866025,108.303848 L238.845299,117 Z M233.439608,119 L236.639608,135 L255.360392,135 L258.560392,119 L233.439608,119 Z M245,122 L247,122 L247,132 L245,132 L245,122 Z M250,122 L252,122 L252,130 L250,130 L250,122 Z M240,122 L242,122 L242,130 L240,130 L240,122 Z"></path>
        </g>
</svg>