<svg width="40px" height="40px" viewBox="0 0 40 40">
   
        <g transform="translate(-748.000000, -102.000000)">
            <path d="M771,126 L765,126 L765,135 L763,135 L763,124 L765,124 L771,124 L773,124 L773,135 L771,135 L771,126 Z M758,119.701219 L758,135 L778,135 L778,119 L778.011582,119 L768.024772,110.344765 L758,119.701219 Z M756,121.567886 L753.682318,123.731055 L752.317682,122.268945 L767.975228,107.655235 L783.654931,121.244311 L782.345069,122.755689 L780,120.723296 L780,137 L756,137 L756,121.567886 Z"></path>
        </g>
   
</svg>