<svg width="40px" height="40px" viewBox="0 0 40 40">
    
        <g transform="translate(-573.000000, -102.000000)">
            <path d="M590,127 L592,127 L592,123 L588,123 L588,115 L592,115 L592,113 L594,113 L594,115 L598,115 L598,117 L598,119 L596,119 L596,117 L594,117 L594,121 L598,121 L598,129 L594,129 L594,131 L592,131 L592,129 L588,129 L588,127 L588,125 L590,125 L590,127 Z M594,123 L594,127 L596,127 L596,123 L594,123 Z M592,117 L590,117 L590,121 L592,121 L592,117 Z M606,116.404832 L606,109 L580,109 L580,120 L578,120 L578,107 L580,107 L606,107 L608,107 L608,116.400453 L611.238061,113.162392 L612.652274,114.576605 L606.99542,120.23346 L605.581207,118.819246 L605.583597,118.816856 L601.340826,114.574085 L602.75504,113.159872 L606,116.404832 Z M580,127.590567 L580,135 L606,135 L606,124 L608,124 L608,137 L606,137 L580,137 L578,137 L578,127.585786 L574.757359,130.828427 L573.343146,129.414214 L579,123.757359 L580.414214,125.171573 L580.411823,125.173963 L584.654594,129.416734 L583.24038,130.830947 L580,127.590567 Z"></path>
        </g>
</svg>