<svg width="40px" height="40px" viewBox="0 0 40 40" >
    
        <g transform="translate(-313.000000, -102.000000)">
            <path d="M335.414214,126.949747 L341.571068,133.106602 L344.399495,130.278175 L338.242641,124.12132 L335.414214,126.949747 Z M328.853721,133.41007 L328.899495,133.455844 L326.071068,136.284271 L324.656854,134.870058 L326.945269,132.581643 L326.945269,128.344526 L322.697104,128.344526 L320.414214,130.627417 L319,129.213203 L321.828427,126.384776 L321.879726,126.436075 L321.879726,126.344526 L327.525531,126.344526 L337.387538,116.482519 L337.387538,110.836714 L337.393063,110.836714 L337.384776,110.828427 L340.213203,108 L341.627417,109.414214 L339.387538,111.654092 L339.387538,115.902257 L343.624655,115.902257 L345.870058,113.656854 L347.284271,115.071068 L344.455844,117.899495 L344.453082,117.896733 L344.453082,117.902257 L338.804514,117.902257 L338.804514,117.893971 L328.936983,127.761502 L328.945269,127.761502 L328.945269,133.41007 L328.853721,133.41007 Z M338.804514,116.490806 L338.804514,116.485281 L338.79899,116.485281 L338.804514,116.490806 Z M332.585786,126.949747 L338.242641,121.292893 L347.227922,130.278175 L341.571068,135.935029 L332.585786,126.949747 Z M331.604881,119.192636 L330.189358,120.606086 L325.120099,115.54086 L322.998834,114.831083 L320.70819,111.120886 L322.127744,109.709397 L325.833909,112.01214 L326.53562,114.125339 L331.604881,119.192636 Z"></path>
        </g>
</svg>