<svg width="16" height="16"><path d="M3.573 14.32a7.67 7.67 0 0 1-1.892-1.893L2.9 11.159a6.034 6.034 0 0 1-.74-1.786L.402 9.338A7.67 7.67 0 0 1 .4 6.662l1.757-.035a6.043 6.043 0 0 1 .74-1.787L1.681 3.573A7.67 7.67 0 0 1 3.573 1.68L4.841 2.9a6.034 6.034 0 0 1 1.786-.74L6.662.402A7.67 7.67 0 0 1 9.338.4l.035 1.757a6.043 6.043 0 0 1 1.787.74l1.267-1.217a7.67 7.67 0 0 1 1.892 1.892L13.1 4.841c.341.551.591 1.155.74 1.786l1.757.035a7.67 7.67 0 0 1 .001 2.676l-1.757.035a6.043 6.043 0 0 1-.74 1.787l1.217 1.267a7.67 7.67 0 0 1-1.892 1.892L11.159 13.1a6.034 6.034 0 0 1-1.786.74l-.035 1.757a7.67 7.67 0 0 1-2.676.001l-.035-1.757a6.043 6.043 0 0 1-1.787-.74l-1.267 1.217zm3.006-2.888A3.714 3.714 0 1 0 9.42 4.568a3.714 3.714 0 0 0-2.842 6.864z"/></svg>