<svg xmlns="http://www.w3.org/2000/svg" width="9" height="16" viewBox="0 0 9 16">
    <path d="M3.13 11.47c.014-.854.114-1.528.3-2.023.184-.495.561-1.044 1.131-1.646l1.454-1.453c.621-.681.932-1.413.932-2.195 0-.753-.203-1.343-.61-1.77-.407-.426-1-.64-1.776-.64-.755 0-1.361.194-1.82.581-.459.388-.688.908-.688 1.56H0c.015-1.162.442-2.1 1.282-2.813C2.122.357 3.215 0 4.56 0c1.398 0 2.488.364 3.268 1.092C8.61 1.82 9 2.82 9 4.09 9 5.344 8.4 6.58 7.202 7.8l-1.21 1.162c-.54.581-.81 1.417-.81 2.507H3.13zm-.09 3.411c0-.323.102-.594.306-.812.203-.22.505-.329.904-.329.4 0 .703.11.91.329.207.218.311.49.311.812 0 .323-.104.59-.31.802-.208.211-.511.317-.91.317-.4 0-.702-.106-.905-.317a1.11 1.11 0 0 1-.305-.802z"/>
</svg>
