<svg width="40px" height="40px" viewBox="0 0 40 40">
        <g transform="translate(-922.000000, -102.000000)">
            <path d="M929.5,120 L932,110 L952,110 L954.5,120 L957,120 L957,130 L955,130 L955,135 L948,135 L948,130 L936,130 L936,135 L929,135 L929,130 L927,130 L927,120 L929.5,120 Z M929,122 L929,128 L936,128 L948,128 L955,128 L955,122 L929,122 Z M931,124 L935,124 L935,126 L931,126 L931,124 Z M949,124 L953,124 L953,126 L949,126 L949,124 Z M931,130 L931,133 L934,133 L934,130 L931,130 Z M950,130 L950,133 L953,133 L953,130 L950,130 Z M952.438447,120 L950.438447,112 L933.561553,112 L931.561553,120 L952.438447,120 Z"></path>
        </g>
    
</svg>