<svg width="40px" height="40px" viewBox="0 0 40 40">
        <g transform="translate(-401.000000, -102.000000)" >
            <path d="M412,134 L412,137 L406,137 L406,135 L410,135 L410,124 L406,124 L406,122 L412,122 L412,124 L415.236068,124 L419.236068,126 L426,126 L426,126.750354 L434.440337,124.853728 L436.266095,129.484986 L421.032379,137.101844 L413.794742,134 L412,134 Z M412,132 L414.205258,132 L420.967621,134.898156 L433.733905,128.515014 L433.207829,127.180558 L426,128.800227 L426,132 L418,132 L418,130 L424,130 L424,128 L418.763932,128 L414.763932,126 L412,126 L412,132 Z M412,115 L412,119 L410,119 L410,107 L412,107 L432,107 L434,107 L434,122 L432,122 L432,115 L412,115 Z M412,113 L432,113 L432,109 L412,109 L412,113 Z M421,109 L423,109 L423,113 L421,113 L421,109 Z"></path>
        </g>
</svg>