<svg width="120" height="120"><path d="M19.349 20.97C9.617 31.103 3.632 44.86 3.632 60c0 14.864 5.769 28.394 15.187 38.471C28.39 85.244 43.611 77.368 60 77.368a50.622 50.622 0 0 1 19.746 4L67.378 69A25.06 25.06 0 0 1 60 70.105c-13.895 0-25.263-11.368-25.263-25.263 0-2.564.387-5.042 1.106-7.378L19.349 20.97zm81.912 81.912C90.555 113.186 76.009 119.526 60 119.526 27.158 119.526.474 92.842.474 60c0-16.01 6.34-30.555 16.644-41.26l-7.176-7.177 2.121-2.121 98.995 98.995-2.121 2.121-7.676-7.676zM64.798 66.419L38.423 40.044a21.975 21.975 0 0 0-.528 4.798C37.895 57 47.842 66.947 60 66.947a21.95 21.95 0 0 0 4.798-.528zM87.82 89.442A47.212 47.212 0 0 0 60 80.368c-15.518 0-29.99 7.626-38.905 20.403 10.12 9.66 23.826 15.597 38.905 15.597s28.785-5.937 38.906-15.598a46.37 46.37 0 0 0-.605-.847l-10.48-10.481zm15.203 6.96c8.323-9.825 13.345-22.533 13.345-36.402 0-31.105-25.263-56.368-56.368-56.368-13.87 0-26.577 5.022-36.401 13.345L21.36 14.74C31.764 5.847 45.262.474 60 .474c32.842 0 59.526 26.684 59.526 59.526 0 14.738-5.373 28.236-14.266 38.639l-2.237-2.238zM38.4 31.778C42.843 24.48 50.877 19.58 60 19.58c13.895 0 25.263 11.368 25.263 25.263 0 9.123-4.901 17.157-12.2 21.6l-2.306-2.307c6.757-3.793 11.348-11.033 11.348-19.293 0-12.158-9.947-22.105-22.105-22.105-8.26 0-15.5 4.592-19.293 11.349L38.4 31.779z" fill="#BFBFBF"/></svg>