<svg width="120" height="120"><path d="M60 119.526C27.158 119.526.474 92.842.474 60S27.158.474 60 .474 119.526 27.158 119.526 60 92.842 119.526 60 119.526zM60 3.632C28.895 3.632 3.632 28.895 3.632 60S28.895 116.368 60 116.368 116.368 91.105 116.368 60 91.105 3.632 60 3.632zm0 66.473c-13.895 0-25.263-11.368-25.263-25.263C34.737 30.947 46.105 19.58 60 19.58c13.895 0 25.263 11.368 25.263 25.263 0 13.895-11.368 25.263-25.263 25.263zm0-47.368c-12.158 0-22.105 9.947-22.105 22.105C37.895 57 47.842 66.947 60 66.947c12.158 0 22.105-9.947 22.105-22.105 0-12.158-9.947-22.105-22.105-22.105zm-39.632 79.105l-2.684-1.737C27.158 85.895 42.947 77.368 60 77.368c16.895 0 32.526 8.369 42 22.264l-2.684 1.736c-8.842-13.105-23.527-21-39.316-21-15.947 0-30.79 8.053-39.632 21.474z" fill="#BFBFBF"/></svg>